<svg xmlns="http://www.w3.org/2000/svg" width="64.786" height="64.786" viewBox="0 0 64.786 64.786">
  <path d="M32.393 1a31.4 31.4 0 0 0-12.219 60.32A31.4 31.4 0 0 0 44.612 3.467 31.2 31.2 0 0 0 32.393 1m0-1A32.393 32.393 0 1 1 0 32.393 32.393 32.393 0 0 1 32.393 0Z" fill="#3e693e"/>
  <path d="M23.342 23.447h5.329a4.3 4.3 0 0 1 2.758.84 2.735 2.735 0 0 1 1.1 2.215 5.5 5.5 0 0 1-.946 2.738l-5.7 9.714a5.235 5.235 0 0 1-1.868 1.967 5.066 5.066 0 0 1-2.428.535h-2.552a2.681 2.681 0 0 1-2.043-.778 2.313 2.313 0 0 1-.493-2.147l1.677-10.282a6.283 6.283 0 0 1 1.534-3.677 5.094 5.094 0 0 1 3.632-1.125Zm1.688 14.989 5.694-9.709a4.653 4.653 0 0 0 .8-2.225 1.756 1.756 0 0 0-.725-1.435 3.341 3.341 0 0 0-2.133-.62h-5.324a4.177 4.177 0 0 0-2.938.845 5.465 5.465 0 0 0-1.241 3.107v.006l-1.682 10.313a1.365 1.365 0 0 0 .239 1.275 1.708 1.708 0 0 0 1.315.463h2.555a4.093 4.093 0 0 0 1.952-.414 4.358 4.358 0 0 0 1.488-1.606ZM39.303 23.447h5.329a4.3 4.3 0 0 1 2.758.84 2.735 2.735 0 0 1 1.1 2.215 5.5 5.5 0 0 1-.946 2.738l-5.7 9.714a5.235 5.235 0 0 1-1.868 1.967 5.066 5.066 0 0 1-2.428.535h-2.552a2.681 2.681 0 0 1-2.043-.778 2.313 2.313 0 0 1-.493-2.147l1.677-10.282a6.283 6.283 0 0 1 1.534-3.677 5.094 5.094 0 0 1 3.632-1.125Zm1.688 14.989 5.694-9.709a4.653 4.653 0 0 0 .8-2.225 1.756 1.756 0 0 0-.725-1.435 3.341 3.341 0 0 0-2.133-.62h-5.324a4.177 4.177 0 0 0-2.938.845 5.465 5.465 0 0 0-1.241 3.107v.006l-1.682 10.313a1.365 1.365 0 0 0 .239 1.275 1.708 1.708 0 0 0 1.315.463h2.555a4.093 4.093 0 0 0 1.952-.414 4.358 4.358 0 0 0 1.488-1.606Z" fill="#3e693e"/>
</svg>